<svg xmlns="http://www.w3.org/2000/svg" xmlns:xlink="http://www.w3.org/1999/xlink" width="25px" height="25px" viewBox="0 0 48 48"><defs id="0"><linearGradient id="2"><stop id="J" stop-color="#2e3436"/><stop id="K" offset="1" stop-color="#2e3436" stop-opacity="0"/></linearGradient><linearGradient id="3"><stop id="L" stop-color="#555753"/><stop id="M" offset="1" stop-color="#2e3436" stop-opacity="0"/></linearGradient><linearGradient id="4"><stop id="N" stop-color="#d3d7cf"/><stop id="O" offset="1" stop-color="#888a85"/></linearGradient><linearGradient id="5"><stop id="P" stop-color="#d3d7cf"/><stop id="Q" offset="1" stop-color="#babdb6"/></linearGradient><linearGradient id="6"><stop id="R" stop-color="#babdb6"/><stop id="S" offset="1" stop-color="#888a85"/></linearGradient><linearGradient id="7"><stop id="T" stop-color="#555753"/><stop id="U" offset="1" stop-color="#555753" stop-opacity="0"/></linearGradient><linearGradient id="8"><stop id="V" stop-color="#fff" stop-opacity="0.8"/><stop id="W" offset="1" stop-color="#fff" stop-opacity="0"/></linearGradient><radialGradient cx="28.31" cy="49.21" r="29.631" id="9" xlink:href="#2" gradientUnits="userSpaceOnUse" gradientTransform="matrix(1,0,0,0.2193309,0,38.41805)"/><radialGradient cx="15.377" cy="16.887" r="17.519" id="A" xlink:href="#6" gradientUnits="userSpaceOnUse" gradientTransform="matrix(-0.7187342,1.823343,-2.4589993,-0.9693001,67.955138,4.3919888)"/><radialGradient cx="22.82" cy="12.09" r="16.371" id="B" xlink:href="#5" gradientUnits="userSpaceOnUse" gradientTransform="matrix(0.04423231,0.5832604,-1.2050316,0.09138537,30.624479,-11.223376)"/><radialGradient cx="24.651" cy="29.22" r="12.843" id="C" xlink:href="#4" gradientUnits="userSpaceOnUse" gradientTransform="matrix(1.8213465,-1.2455015,0.9347914,1.3669841,-54.038367,20.713496)"/><linearGradient y1="8.109" x2="0" y2="42.2" id="D" xlink:href="#8" gradientUnits="userSpaceOnUse" gradientTransform="matrix(1.1691829,0,0,1.0963671,-5.3757184,-3.5462228)"/><radialGradient cx="15.944" cy="13.237" r="12.843" id="E" xlink:href="#4" gradientUnits="userSpaceOnUse" gradientTransform="matrix(-0.2907446,2.5352177,-3.9714465,-0.4554546,71.72371,-19.399646)"/><linearGradient y1="18.908" x2="0" y2="24.23" id="F" xlink:href="#3" gradientUnits="userSpaceOnUse"/><linearGradient y1="21.05" x2="0" y2="25.907" id="G" xlink:href="#7" gradientUnits="userSpaceOnUse" gradientTransform="matrix(1.1691829,0,0,1.0963671,-6.7699641,10.202438)"/></defs><g id="1"><path d="m 57.94091,49.211693 a 29.631378,6.4990754 0 1 1 -59.262756,0 29.631378,6.4990754 0 1 1 59.262756,0 z" transform="matrix(0.795539,0,0,0.5254237,1.4786631,16.970242)" id="H" opacity="0.8" fill="url(#9)"/><g id="I"><g transform="translate(1.3942457,0.6275188)" id="X"><path d="m 5.6526035,8.5715257 0,33.9873793 33.9063015,0 0,-33.9873793 -4.676731,-4.3854683 -24.552839,0 -4.6767315,4.3854683 z" id="Y" fill="url(#A)" fill-rule="evenodd" stroke="#555753" stroke-linejoin="round" stroke-linecap="round" stroke-width="1.132"/><path d="m 10.591515,4.8441446 -4.3529066,4.1835874 1.3895562,0.2740913 30.1818364,0 1.170334,-0.2740913 -4.516786,-4.1835874 -23.872034,0 z" id="Z" fill="url(#B)" fill-rule="evenodd"/><rect width="24.553" height="11.02" rx="1.086" ry="1.018" x="10.269" y="28.04" id="a" opacity="0.5" fill="none" stroke="#fff" stroke-linejoin="round" stroke-linecap="round" stroke-width="1.132"/><rect width="24.553" height="11.02" rx="1.086" ry="1.018" x="10.269" y="27.05" id="b" fill="url(#C)" fill-rule="evenodd" stroke="#555753" stroke-linejoin="round" stroke-linecap="round" stroke-width="1.132"/><path d="m 12.28125,5.34375 0,0.03125 c -0.07818,-0.00214 -0.144437,-0.027843 -0.21875,0 L 11.9375,5.40625 11.875,5.5 l -4,3.75 -0.09375,0.09375 -0.0625,0.125 c -0.027843,0.074313 -0.00214,0.1405683 0,0.21875 l -0.03125,0 0,32.4375 0.03125,0 c -0.00214,0.07818 -0.027843,0.144437 0,0.21875 l 0.09375,0.25 0.25,0.09375 c 0.074313,0.02784 0.1405683,0.0021 0.21875,0 l 0,0.03125 31.4375,0 0,-0.03125 c 0.07818,0.0021 0.144437,0.02784 0.21875,0 l 0.25,-0.09375 0.09375,-0.25 c 0.02784,-0.07431 0.0021,-0.140568 0,-0.21875 l 0.03125,0 0,-32.4375 -0.03125,0 c 0.0021,-0.078182 0.02784,-0.1444369 0,-0.21875 L 40.21875,9.34375 40.125,9.25 36.15625,5.5 36.09375,5.40625 35.96875,5.375 C 35.89444,5.347157 35.828182,5.37286 35.75,5.375 l 0,-0.03125 -23.46875,0 z m 0.1875,1.125 23.09375,0 3.625,3.40625 0,0.03125 -30.375,0 0,-0.03125 3.65625,-3.40625 z m -3.65625,4.4375 30.375,0 0,30.6875 -30.375,0 0,-30.6875 z" transform="translate(-1.3942457,-0.6275188)" id="c" opacity="0.8" fill="url(#D)" fill-rule="evenodd"/><rect width="24.553" height="11.02" rx="1.086" ry="1.018" x="10.269" y="13.669" id="d" opacity="0.5" fill="none" stroke="#fff" stroke-linejoin="round" stroke-linecap="round" stroke-width="1.132"/><rect width="24.553" height="11.02" rx="1.086" ry="1.018" x="10.269" y="12.669" id="e" fill="url(#E)" fill-rule="evenodd" stroke="#555753" stroke-linejoin="round" stroke-linecap="round" stroke-width="1.132"/><rect width="7.889" height="4.19" rx="0.335" ry="0.37" x="18.652" y="19.474" id="f" fill="url(#F)" fill-rule="evenodd" stroke="#555753" stroke-linejoin="round" stroke-linecap="round" stroke-width="1.132"/><rect width="7.889" height="4.19" rx="0.335" ry="0.37" x="18.652" y="33.85" id="g" fill="url(#G)" fill-rule="evenodd" stroke="#555753" stroke-linejoin="round" stroke-linecap="round" stroke-width="1.132"/></g></g></g></svg>
